<svg width="12" height="18" viewBox="0 0 12 18" fill="none" xmlns="http://www.w3.org/2000/svg">
<g clip-path="url(#clip0_103_387)">
<path d="M10.375 4.375H7.6C7.475 4.375 7.35 4.325 7.25 4.225L6.25 3.225C6.1 3.075 5.875 3.075 5.725 3.225L4.725 4.225C4.625 4.325 4.5 4.375 4.375 4.375H1.625C0.8 4.375 0.125 5.05 0.125 5.875V13.375C0.125 14.2 0.8 14.875 1.625 14.875H10.375C11.2 14.875 11.875 14.2 11.875 13.375V5.875C11.875 5.05 11.2 4.375 10.375 4.375ZM3.025 14.125C2.875 14.125 2.75 13.975 2.775 13.825C2.95 13.025 3.65 12.425 4.475 12.425H7.475C8.325 12.425 9.025 13.025 9.175 13.825C9.2 13.975 9.075 14.125 8.925 14.125H3.025ZM11.125 13.375C11.125 13.8 10.8 14.125 10.375 14.125H10.225C10.1 14.125 10 14.025 9.975 13.9C9.825 12.65 8.775 11.675 7.5 11.675H4.5C3.225 11.675 2.15 12.65 2.025 13.9C2 14.025 1.9 14.125 1.775 14.125H1.625C1.2 14.125 0.875 13.8 0.875 13.375V5.875C0.875 5.45 1.2 5.125 1.625 5.125H4.4C4.725 5.125 5.05 5 5.275 4.75L6 4.025L6.725 4.75C6.95 4.975 7.275 5.125 7.6 5.125H10.375C10.8 5.125 11.125 5.45 11.125 5.875V13.375ZM6 6.125C4.675 6.125 3.6 7.2 3.6 8.525C3.6 9.85 4.675 10.925 6 10.925C7.325 10.925 8.4 9.85 8.4 8.525C8.4 7.2 7.325 6.125 6 6.125ZM6 10.15C5.1 10.15 4.35 9.425 4.35 8.5C4.35 7.6 5.075 6.85 6 6.85C6.925 6.85 7.65 7.575 7.65 8.5C7.65 9.4 6.9 10.15 6 10.15Z" fill="#8E8E8E"/>
</g>
<defs>
<clipPath id="clip0_103_387">
<rect width="12" height="12" fill="white" transform="translate(0 3)"/>
</clipPath>
</defs>
</svg>
